<svg xmlns="http://www.w3.org/2000/svg" width="24" height="24" viewBox="0 0 24 24">
  <g id="gmail_icon" data-name="gmail icon" transform="translate(-0.214 -0.533)">
    <g id="Group_3787" data-name="Group 3787" transform="translate(0.214 0.533)">
      <g id="Group_3786" data-name="Group 3786" transform="translate(0)">
        <path id="Path_857" data-name="Path 857" d="M5.237,18.92a6.959,6.959,0,0,1,.368-2.228L1.473,13.6a11.85,11.85,0,0,0,0,10.628L5.6,21.138a6.962,6.962,0,0,1-.364-2.218" transform="translate(-0.214 -6.92)" fill="#fbbc05" fill-rule="evenodd"/>
        <path id="Path_858" data-name="Path 858" d="M13.643,5.442a7.2,7.2,0,0,1,4.521,1.582l3.572-3.491A12.422,12.422,0,0,0,2.623,7.217l4.132,3.088a7.224,7.224,0,0,1,6.887-4.863" transform="translate(-1.364 -0.533)" fill="#eb4335" fill-rule="evenodd"/>
        <path id="Path_859" data-name="Path 859" d="M13.643,33.22a7.224,7.224,0,0,1-6.887-4.863L2.623,31.444a12.27,12.27,0,0,0,11.02,6.685,11.847,11.847,0,0,0,8-2.991L17.721,32.17a7.722,7.722,0,0,1-4.078,1.049" transform="translate(-1.364 -14.129)" fill="#34a853" fill-rule="evenodd"/>
        <path id="Path_860" data-name="Path 860" d="M35.435,21.915a9.743,9.743,0,0,0-.279-2.182H23.714V24.37H30.3a5.405,5.405,0,0,1-2.508,3.587l3.923,2.968a11.809,11.809,0,0,0,3.721-9.009" transform="translate(-11.435 -9.915)" fill="#4285f4" fill-rule="evenodd"/>
      </g>
    </g>
  </g>
</svg>
