<svg xmlns="http://www.w3.org/2000/svg" width="32" height="32" viewBox="0 0 32 32">
  <g id="Group_60207" data-name="Group 60207" transform="translate(10878 -5518)">
    <g id="Group_59924" data-name="Group 59924" transform="translate(-10878 5518)">
      <rect id="Rectangle_16209" data-name="Rectangle 16209" width="32" height="32" transform="translate(0 0)" fill="#fff" opacity="0"/>
      <g id="svgexport-6_43_" data-name="svgexport-6 (43)" transform="translate(1.063 0)">
        <g id="Group_59413" data-name="Group 59413">
          <path id="Path_27660" data-name="Path 27660" d="M313.084,146.247l-.039-.037L308.05,151.2l.037.039a3.533,3.533,0,0,0,5-5Z" transform="translate(-289.861 -137.072)" fill="#fee55a"/>
          <path id="Path_27661" data-name="Path 27661" d="M309.168,208.252l-1.118,1.117.037.039a3.531,3.531,0,0,0,3.424.911,3.533,3.533,0,0,1-2.343-2.067Z" transform="translate(-289.861 -195.236)" fill="#ffd301"/>
          <path id="Path_27662" data-name="Path 27662" d="M293.118,131.278a3.533,3.533,0,0,0,0,5l5-5A3.533,3.533,0,0,0,293.118,131.278Z" transform="translate(-274.892 -122.103)" fill="#ff656f"/>
          <path id="Path_27663" data-name="Path 27663" d="M294.969,131.293a3.517,3.517,0,0,1,1.573-.911,3.546,3.546,0,0,0-1-.122h-.023a3.533,3.533,0,0,0-2.4,6.029l1.1-1.1A3.534,3.534,0,0,1,294.969,131.293Z" transform="translate(-274.892 -122.118)" fill="#ff4756"/>
          <path id="Path_27664" data-name="Path 27664" d="M371.083,42.329l-1.94-1.94-3.134,3.134,1.94,1.94a2.216,2.216,0,0,0,3.134-3.134Z" transform="translate(-344.199 -37.865)" fill="#d9edff"/>
          <path id="Path_27665" data-name="Path 27665" d="M369.517,69.279l-1.94-1.94-.111-.111-1.456,1.456,1.94,1.94a2.216,2.216,0,0,0,3.628-.752A2.214,2.214,0,0,1,369.517,69.279Z" transform="translate(-344.199 -63.027)" fill="#b4dbff"/>
          <path id="Path_27666" data-name="Path 27666" d="M331.312,2.556,329.4.649a2.216,2.216,0,0,0-3.134,3.134l1.907,1.907Z" transform="translate(-306.335 0)" fill="#2ba8e2"/>
          <path id="Path_27667" data-name="Path 27667" d="M327.837,3.278A2.216,2.216,0,0,1,327.343.9a2.215,2.215,0,0,0-1.073,3.727l1.908,1.907,1.456-1.456Z" transform="translate(-306.334 -0.841)" fill="#2181ae"/>
          <circle id="Ellipse_1337" data-name="Ellipse 1337" cx="1.243" cy="1.243" r="1.243" transform="translate(15.054 3.882)" fill="#2ba8e2"/>
          <path id="Path_27668" data-name="Path 27668" d="M258.959,63.35a1.242,1.242,0,0,1,.708-1.121,1.243,1.243,0,1,0,0,2.242A1.242,1.242,0,0,1,258.959,63.35Z" transform="translate(-242.835 -58.225)" fill="#2181ae"/>
          <path id="Path_27669" data-name="Path 27669" d="M372.479,280.413a.9.9,0,0,0,.619-.166l4.037-2.9a1.54,1.54,0,0,1,.707-.279.128.128,0,0,0,.111-.131,1.778,1.778,0,0,0-.661-1.378,1.547,1.547,0,0,0-2.177.384l-2.849,4.108a.913.913,0,0,1-.364.308h0Z" transform="translate(-349.723 -258.062)" fill="#ffbd86"/>
          <path id="Path_27670" data-name="Path 27670" d="M377.152,275.938a1.575,1.575,0,0,1,.155-.19.128.128,0,0,0-.014-.193h0a1.547,1.547,0,0,0-2.177.384l-2.849,4.107a.916.916,0,0,1-.365.308h0l.576.059a.9.9,0,0,0,.619-.166l2.111-1.518a.122.122,0,0,0,.031-.031Z" transform="translate(-349.722 -258.061)" fill="#f6a96c"/>
          <path id="Path_27671" data-name="Path 27671" d="M149.763,281.271a1.567,1.567,0,0,0-2.21-.417l-4,2.817a1.044,1.044,0,0,1-.705.186l-2.1-.209a.22.22,0,0,1-.107-.4,1.707,1.707,0,0,0-.715-3.1l-6.941-1.061a3.074,3.074,0,0,0-2.235.525l-3.685,2.6a.129.129,0,0,0-.031.18l4.117,5.782a.128.128,0,0,0,.168.037,9.714,9.714,0,0,1,4.913-1.265l6.255.076a5,5,0,0,0,3-.91l3.833-2.7A1.573,1.573,0,0,0,149.763,281.271Z" transform="translate(-120.14 -261.615)" fill="#fed2a4"/>
          <path id="Path_27672" data-name="Path 27672" d="M130.166,281.46l2.614-1.842a3.055,3.055,0,0,1,.43-.253.128.128,0,0,0-.035-.243l-.186-.028a3.073,3.073,0,0,0-2.235.525l-3.685,2.6a.129.129,0,0,0-.031.18l4.117,5.782a.128.128,0,0,0,.168.037,9.719,9.719,0,0,1,1.259-.6.128.128,0,0,0,.059-.194l-2.819-3.959A1.432,1.432,0,0,1,130.166,281.46Z" transform="translate(-120.142 -261.617)" fill="#ffbd86"/>
          <path id="Path_27673" data-name="Path 27673" d="M272.776,331.31a.129.129,0,0,0,.14-.092.088.088,0,0,1,.055-.063,1.721,1.721,0,0,0,.864-.758.5.5,0,0,0-.092-.017l-4.666-.416a.506.506,0,1,0-.091,1.009Z" transform="translate(-252.805 -309.34)" fill="#ffbd86"/>
          <path id="Path_27674" data-name="Path 27674" d="M21.069,334.882a.129.129,0,0,0-.179-.031l-3.552,2.516a.713.713,0,0,0-.186.991l5.136,7.252a.714.714,0,0,0,1,.153l3.552-2.516a.128.128,0,0,0,.031-.179Z" transform="translate(-17.026 -313.901)" fill="#2ba8e2"/>
          <path id="Path_27675" data-name="Path 27675" d="M19.32,338.359a.713.713,0,0,1,.186-.991l2.13-1.459a.128.128,0,0,0,.032-.18l-.6-.846a.129.129,0,0,0-.179-.031l-3.552,2.516a.713.713,0,0,0-.186.991l5.136,7.252a.713.713,0,0,0,1,.154l.748-.53a.128.128,0,0,0,.031-.179Z" transform="translate(-17.026 -313.901)" fill="#2181ae"/>
          <path id="Path_27676" data-name="Path 27676" d="M86.141,324.453a.128.128,0,0,0,.179.031l1.457-1.032a.706.706,0,0,0,.174-.983l-5.136-7.252a.706.706,0,0,0-.985-.162l-1.457,1.032a.129.129,0,0,0-.031.179Z" transform="translate(-76.362 -295.241)" fill="#d9edff"/>
          <g id="Group_59412" data-name="Group 59412" transform="translate(3.956 19.683)">
            <path id="Path_27677" data-name="Path 27677" d="M83.074,315.808a.129.129,0,0,0,.032-.18l-.291-.411a.706.706,0,0,0-.985-.162l-1.457,1.032a.128.128,0,0,0-.031.179l.6.848a.128.128,0,0,0,.178.032Z" transform="translate(-80.318 -314.923)" fill="#b4dbff"/>
          </g>
          <path id="Path_27678" data-name="Path 27678" d="M242.248,146.247l-.039-.037-4.995,4.995.037.039a3.533,3.533,0,0,0,5-5Z" transform="translate(-223.452 -137.072)" fill="#fee55a"/>
          <path id="Path_27679" data-name="Path 27679" d="M238.331,208.252l-1.117,1.117.037.039a3.531,3.531,0,0,0,3.424.911,3.534,3.534,0,0,1-2.344-2.067Z" transform="translate(-223.452 -195.236)" fill="#ffd301"/>
          <path id="Path_27680" data-name="Path 27680" d="M222.282,131.278a3.533,3.533,0,0,0,0,5l5-5A3.533,3.533,0,0,0,222.282,131.278Z" transform="translate(-208.484 -122.103)" fill="#ff656f"/>
          <path id="Path_27681" data-name="Path 27681" d="M224.133,131.293a3.517,3.517,0,0,1,1.573-.911,3.546,3.546,0,0,0-1-.122h-.023a3.533,3.533,0,0,0-2.4,6.029l1.1-1.1A3.534,3.534,0,0,1,224.133,131.293Z" transform="translate(-208.483 -122.118)" fill="#ff4756"/>
        </g>
      </g>
    </g>
  </g>
</svg>
