<svg xmlns="http://www.w3.org/2000/svg" width="32" height="32" viewBox="0 0 32 32">
  <g id="Group_60213" data-name="Group 60213" transform="translate(10644 -5869)">
    <rect id="Rectangle_16200" data-name="Rectangle 16200" width="32" height="32" transform="translate(-10644 5869)" fill="#fff" opacity="0"/>
    <g id="svgexport-6_44_" data-name="svgexport-6 (44)" transform="translate(-10643.575 5869)">
      <path id="Path_27682" data-name="Path 27682" d="M40.973,299.616a2.18,2.18,0,0,0-2.511.267,1.529,1.529,0,0,1-1.469.294L35.4,299.67a14.631,14.631,0,0,0-8.887,0l-1.592.507a1.529,1.529,0,0,1-1.469-.294,2.181,2.181,0,0,0-2.511-.267l-2.531,1.41a.549.549,0,0,0-.282.479v10.239a.549.549,0,0,0,.549.549H43.237a.549.549,0,0,0,.549-.549V301.505a.549.549,0,0,0-.282-.479Zm0,0" transform="translate(-16.996 -280.293)" fill="#fe9d7f"/>
      <path id="Path_27683" data-name="Path 27683" d="M106.631,299.418c-.611,2.778-1.425,7.171-1.812,9.3a2.237,2.237,0,0,1-4.411-.06l-.965-6.246a1.164,1.164,0,0,0-2.3,0l-.965,6.247a2.238,2.238,0,0,1-2.211,1.9l-.074,0a2.27,2.27,0,0,1-2.134-1.868c-.248-1.364-.627-3.415-1.022-5.441-.3-1.544-.565-2.829-.784-3.826a2.23,2.23,0,0,1,.834.457,1.53,1.53,0,0,0,1.47.295l1.592-.508a14.633,14.633,0,0,1,8.888,0l1.592.508a1.528,1.528,0,0,0,1.469-.295,2.242,2.242,0,0,1,.834-.457Zm0,0" transform="translate(-84.331 -280.285)" fill="#fe825e"/>
      <path id="Path_27684" data-name="Path 27684" d="M321.813,319.022v10.239a.549.549,0,0,1-.549.549h-6.573c4.8-3.713,5.341-9.29,5.262-12.146l1.578.879A.548.548,0,0,1,321.813,319.022Zm0,0" transform="translate(-295.024 -297.81)" fill="#fe825e"/>
      <path id="Path_27685" data-name="Path 27685" d="M87.792,108.88,86.575,113s0,.009,0,.013c-.564,1.853-1.8,8.516-2.324,11.384a1.617,1.617,0,0,1-3.19-.043l-.965-6.247a1.783,1.783,0,0,0-3.525,0L75.6,124.35a1.618,1.618,0,0,1-1.652,1.37,1.644,1.644,0,0,1-1.544-1.36c-.239-1.312-.623-3.394-1.023-5.449-.481-2.467-.987-4.9-1.294-5.9l0-.013-1.217-4.116a4.993,4.993,0,0,1,6.175-6.208,11.841,11.841,0,0,0,6.575,0,5.014,5.014,0,0,1,1.39-.2,4.986,4.986,0,0,1,4.785,6.4Zm0,0" transform="translate(-64.369 -96.072)" fill="#dcf4ff"/>
      <path id="Path_27686" data-name="Path 27686" d="M112.223,352.067a15.638,15.638,0,0,0,5.2-.892l-.978,6.33a1.618,1.618,0,0,1-1.641,1.37,1.647,1.647,0,0,1-1.557-1.367C113.007,356.2,112.623,354.118,112.223,352.067Zm0,0" transform="translate(-105.209 -329.227)" fill="#a1defa"/>
      <path id="Path_27687" data-name="Path 27687" d="M244.237,121.606l-1.217,4.116,0,.013c-.564,1.853-1.8,8.516-2.324,11.384a1.617,1.617,0,0,1-3.19-.043l-.965-6.247a1.785,1.785,0,0,0-1-1.341l.719-.5c4.676-3.563,5.748-9.812,5.987-12.938a4.988,4.988,0,0,1,2,5.556Zm0,0" transform="translate(-220.814 -108.797)" fill="#a1defa"/>
      <path id="Path_27688" data-name="Path 27688" d="M347.867,269.141h0Zm0,0" transform="translate(-326.126 -252.319)"/>
      <path id="Path_27689" data-name="Path 27689" d="M156.975,129.73a14.67,14.67,0,0,1-4.083-.581.476.476,0,0,1,.265-.914,13.708,13.708,0,0,0,7.638,0,.476.476,0,1,1,.265.914A14.681,14.681,0,0,1,156.975,129.73Zm0,0" transform="translate(-143.014 -120.203)" fill="#a1defa"/>
      <path id="Path_27690" data-name="Path 27690" d="M33.556,188.431a.475.475,0,0,1-.4-.212,8.344,8.344,0,0,0-6.2-3.626,32.665,32.665,0,0,0-7.968.271,43.437,43.437,0,0,1-4.73.375,28.139,28.139,0,0,1-7.714-.956c-2.276-.678-3.478-1.618-3.478-2.716,0-1.153,1.314-2.124,3.8-2.808a.476.476,0,0,1,.253.917c-1.884.518-3.1,1.26-3.1,1.89,0,1.136,3.9,2.72,10.241,2.72a42.813,42.813,0,0,0,4.622-.369,33.372,33.372,0,0,1,8.207-.268,9.244,9.244,0,0,1,6.856,4.041.475.475,0,0,1-.4.739Zm0,0" transform="translate(-2.882 -167.572)" fill="#2ba8e2"/>
      <path id="Path_27691" data-name="Path 27691" d="M158.521,11.868a4.8,4.8,0,0,1-3.74,1.6c-.173,0-.349-.008-.527-.022l.187-.633q.045-.151.079-.3a3.885,3.885,0,0,0,3.274-1.253,2.688,2.688,0,0,0,.649-2.291c-.25-1.416-1.566-2.9-3.608-4.059a14.737,14.737,0,0,0-7.28-1.728c-2.59-.12-5.037-.234-7.627-2.33a.476.476,0,0,1,.6-.74c2.346,1.9,4.537,2,7.072,2.119a15.728,15.728,0,0,1,7.707,1.851c2.323,1.322,3.77,3,4.075,4.72a3.645,3.645,0,0,1-.86,3.071Zm0,0" transform="translate(-131.018 0)" fill="#2ba8e2"/>
      <g id="Group_59414" data-name="Group 59414" transform="translate(0 2.35)">
        <path id="Path_27692" data-name="Path 27692" d="M6.48,132.094a3.876,3.876,0,0,0-2.962,2.963.2.2,0,0,1-.395,0A3.876,3.876,0,0,0,.16,132.094a.2.2,0,0,1,0-.395,3.876,3.876,0,0,0,2.962-2.963.2.2,0,0,1,.395,0A3.876,3.876,0,0,0,6.48,131.7.2.2,0,0,1,6.48,132.094Zm0,0" transform="translate(-0.001 -122.892)" fill="#ffdb29"/>
        <path id="Path_27693" data-name="Path 27693" d="M375.041,48.716a2.944,2.944,0,0,0-2.25,2.25.153.153,0,0,1-.3,0,2.944,2.944,0,0,0-2.25-2.25.153.153,0,0,1,0-.3,2.944,2.944,0,0,0,2.25-2.25.153.153,0,0,1,.3,0,2.944,2.944,0,0,0,2.25,2.25A.153.153,0,0,1,375.041,48.716Zm0,0" transform="translate(-346.988 -45.518)" fill="#ffdb29"/>
        <path id="Path_27694" data-name="Path 27694" d="M82.952,38.77h0a.475.475,0,0,1-.471-.48l0-.22a.476.476,0,0,1,.476-.471h0a.476.476,0,0,1,.471.48l0,.22A.475.475,0,0,1,82.952,38.77Zm0,0" transform="translate(-77.321 -37.598)" fill="#ffdb29"/>
        <path id="Path_27695" data-name="Path 27695" d="M82.655,72.645h0a.476.476,0,0,1-.471-.48l0-.22a.476.476,0,0,1,.476-.471h0a.476.476,0,0,1,.471.48l0,.22A.476.476,0,0,1,82.655,72.645Zm0,0" transform="translate(-77.043 -69.356)" fill="#ffdb29"/>
        <path id="Path_27696" data-name="Path 27696" d="M98.211,57.383h0l-.22,0a.476.476,0,0,1,0-.951h0l.22,0a.476.476,0,0,1,0,.951Zm0,0" transform="translate(-91.42 -55.253)" fill="#ffdb29"/>
        <path id="Path_27697" data-name="Path 27697" d="M64.34,57.086h0l-.22,0a.476.476,0,0,1,0-.951h0l.22,0a.476.476,0,0,1,0,.951Zm0,0" transform="translate(-59.667 -54.974)" fill="#ffdb29"/>
        <path id="Path_27698" data-name="Path 27698" d="M447.612,214.258h0a.476.476,0,0,1-.471-.48l0-.22a.476.476,0,0,1,.475-.471h.005a.475.475,0,0,1,.471.48l0,.22A.475.475,0,0,1,447.612,214.258Zm0,0" transform="translate(-419.19 -202.118)" fill="#ffdb29"/>
        <path id="Path_27699" data-name="Path 27699" d="M447.311,248.129h0a.476.476,0,0,1-.471-.48l0-.22a.476.476,0,0,1,.475-.471h.005a.476.476,0,0,1,.471.48l0,.221A.476.476,0,0,1,447.311,248.129Zm0,0" transform="translate(-418.909 -233.872)" fill="#ffdb29"/>
        <path id="Path_27700" data-name="Path 27700" d="M462.871,232.868h0l-.22,0a.476.476,0,0,1,0-.951h0l.22,0a.476.476,0,0,1,0,.952Zm0,0" transform="translate(-433.289 -219.77)" fill="#ffdb29"/>
        <path id="Path_27701" data-name="Path 27701" d="M429,232.574h0l-.221,0a.476.476,0,0,1,.009-.951l.22,0a.476.476,0,0,1,0,.951Zm0,0" transform="translate(-401.535 -219.494)" fill="#ffdb29"/>
      </g>
    </g>
  </g>
</svg>
