<svg xmlns="http://www.w3.org/2000/svg" width="25.948" height="25.949" viewBox="0 0 25.948 25.949">
  <g id="Group_29" data-name="Group 29" transform="translate(-40 -121)">
    <g id="Group" transform="translate(40 121)">
      <g id="Group-2" data-name="Group">
        <path id="Vector" d="M11.427,0A11.427,11.427,0,1,0,22.854,11.427,11.44,11.44,0,0,0,11.427,0Zm0,20.745a9.318,9.318,0,1,1,9.317-9.318A9.328,9.328,0,0,1,11.427,20.745Z" fill="#fff"/>
      </g>
    </g>
    <g id="Group-3" data-name="Group" transform="translate(57.791 138.792)">
      <g id="Group-4" data-name="Group" transform="translate(0 0)">
        <path id="Vector-2" data-name="Vector" d="M7.848,6.357,1.8.309A1.055,1.055,0,0,0,.309,1.8L6.357,7.848A1.055,1.055,0,0,0,7.848,6.357Z" fill="#fff"/>
      </g>
    </g>
  </g>
</svg>
