<svg xmlns="http://www.w3.org/2000/svg" width="32" height="32" viewBox="0 0 32 32">
  <g id="Group_60209" data-name="Group 60209" transform="translate(10644 -5751)">
    <rect id="Rectangle_16203" data-name="Rectangle 16203" width="32" height="32" transform="translate(-10644 5751)" fill="#fff" opacity="0"/>
    <g id="svgexport-6_41_" data-name="svgexport-6 (41)" transform="translate(-10641.218 5751)">
      <g id="Group_59398" data-name="Group 59398" transform="translate(0 0)">
        <g id="Group_59382" data-name="Group 59382" transform="translate(8.034 12.298)">
          <path id="Path_27633" data-name="Path 27633" d="M180.285,203.087a3.16,3.16,0,0,0,0-6.32H176.24a3.16,3.16,0,1,0,0,6.32Z" transform="translate(-173.08 -196.767)" fill="#e175a5"/>
        </g>
        <g id="Group_59383" data-name="Group 59383" transform="translate(7.233 21.073)">
          <path id="Path_27634" data-name="Path 27634" d="M164.032,339.057a1.886,1.886,0,1,0-3.252,1.3,1.212,1.212,0,0,1,.325.838v6.258a.644.644,0,0,0,.644.644h.794a.644.644,0,0,0,.644-.644v-6.269a1.245,1.245,0,0,1,.342-.845A1.879,1.879,0,0,0,164.032,339.057Z" transform="translate(-160.26 -337.171)" fill="#beeaff"/>
        </g>
        <g id="Group_59384" data-name="Group 59384" transform="translate(7.623)">
          <path id="Path_27635" data-name="Path 27635" d="M174.7,6.569V.644A.644.644,0,0,0,174.056,0H170.14a.644.644,0,0,0-.644.644V6.569a1.291,1.291,0,0,1-.869,1.227,3.122,3.122,0,1,0,3.123,5.245.511.511,0,0,1,.694,0A3.122,3.122,0,1,0,175.569,7.8,1.291,1.291,0,0,1,174.7,6.569Z" transform="translate(-166.505 0)" fill="#e6f7fe"/>
        </g>
        <g id="Group_59385" data-name="Group 59385" transform="translate(14.127)">
          <path id="Path_27636" data-name="Path 27636" d="M273.144,7.8a1.3,1.3,0,0,1-.884-1.232V.644A.644.644,0,0,0,271.616,0h-1.047V7.457a1.3,1.3,0,0,0,.884,1.232,3.116,3.116,0,0,1,1.207,5.141,3.122,3.122,0,0,0,.484-6.029Z" transform="translate(-270.569 0)" fill="#d3effd"/>
        </g>
        <g id="Group_59386" data-name="Group 59386" transform="translate(7.623 16)">
          <path id="Path_27637" data-name="Path 27637" d="M177.687,260.015a3.133,3.133,0,0,0-2.934-2.969l-.029,0a2.008,2.008,0,0,1-1.242-.516,2.081,2.081,0,0,0-2.771,0,2,2,0,0,1-1.238.516q-.117.006-.235.02a3.122,3.122,0,0,0,.388,6.22,1.509,1.509,0,0,1,1.506,1.417l.408,6.694a.644.644,0,0,0,.643.6h1.872a.644.644,0,0,0,.644-.644v-7.009a1.291,1.291,0,0,1,.869-1.227A3.122,3.122,0,0,0,177.687,260.015Z" transform="translate(-166.504 -256)" fill="#e6f7fe"/>
        </g>
        <g id="Group_59387" data-name="Group 59387" transform="translate(14.136 17.048)">
          <path id="Path_27638" data-name="Path 27638" d="M275.375,275.733a3.133,3.133,0,0,0-2.91-2.967,3.245,3.245,0,0,1-.84,5.706,1.357,1.357,0,0,0-.921,1.282v7.964h1.039a.644.644,0,0,0,.644-.644v-7.009a1.3,1.3,0,0,1,.885-1.232A3.122,3.122,0,0,0,275.375,275.733Z" transform="translate(-270.704 -272.766)" fill="#d3effd"/>
        </g>
        <path id="Path_27639" data-name="Path 27639" d="M210.612,175.553l-.557-.655a4.713,4.713,0,0,0-2.248-1.54.483.483,0,0,0-.221.94A3.8,3.8,0,0,1,209.3,175.5l.011.014.262.308a3.133,3.133,0,0,0,.34-.274.511.511,0,0,1,.694,0Z" transform="translate(-197.046 -162.51)" fill="#beeaff"/>
        <g id="Group_59392" data-name="Group 59392" transform="translate(20.618 9.302)">
          <g id="Group_59388" data-name="Group 59388" transform="translate(1.366 5.577)">
            <path id="Path_27640" data-name="Path 27640" d="M398.822,240.431h-2.081a.469.469,0,0,1,0-.937h1.353l-.349-.768a.469.469,0,0,1,.427-.663h2.081a.469.469,0,0,1,0,.938H398.9l.349.768a.469.469,0,0,1-.427.663Z" transform="translate(-396.272 -238.063)" fill="#e69642"/>
          </g>
          <g id="Group_59389" data-name="Group 59389" transform="translate(1.366 5.577)">
            <path id="Path_27641" data-name="Path 27641" d="M398.822,240.431h-2.081a.469.469,0,0,1,0-.937h1.353l-.349-.768a.469.469,0,0,1,.427-.663h2.081a.469.469,0,0,1,0,.938H398.9l.349.768a.469.469,0,0,1-.427.663Z" transform="translate(-396.272 -238.063)" fill="#e69642"/>
          </g>
          <g id="Group_59390" data-name="Group 59390" transform="translate(0)">
            <path id="Path_27642" data-name="Path 27642" d="M374.887,153.27a.469.469,0,0,1-.331-.8l.957-.957-.79-.3a.469.469,0,0,1-.167-.77l1.472-1.472a.469.469,0,1,1,.663.663l-.957.957.79.3a.469.469,0,0,1,.167.77l-1.472,1.472A.467.467,0,0,1,374.887,153.27Z" transform="translate(-374.418 -148.837)" fill="#e69642"/>
          </g>
          <g id="Group_59391" data-name="Group 59391" transform="translate(0 8.963)">
            <path id="Path_27643" data-name="Path 27643" d="M376.36,296.671a.468.468,0,0,1-.332-.137l-1.472-1.472a.469.469,0,0,1,.167-.77l.79-.3-.957-.957a.469.469,0,1,1,.663-.663l1.472,1.472a.469.469,0,0,1-.167.77l-.79.3.957.957a.469.469,0,0,1-.331.8Z" transform="translate(-374.419 -292.238)" fill="#e69642"/>
          </g>
        </g>
        <g id="Group_59397" data-name="Group 59397" transform="translate(0 9.302)">
          <g id="Group_59393" data-name="Group 59393" transform="translate(0 5.577)">
            <path id="Path_27644" data-name="Path 27644" d="M48.514,240.431H46.433a.469.469,0,0,1-.427-.663l.349-.768H45a.469.469,0,0,1,0-.937h2.081a.469.469,0,0,1,.427.663l-.349.768h1.353a.469.469,0,0,1,0,.938Z" transform="translate(-44.533 -238.063)" fill="#e69642"/>
          </g>
          <g id="Group_59394" data-name="Group 59394" transform="translate(0 5.577)">
            <path id="Path_27645" data-name="Path 27645" d="M48.514,240.431H46.433a.469.469,0,0,1-.427-.663l.349-.768H45a.469.469,0,0,1,0-.937h2.081a.469.469,0,0,1,.427.663l-.349.768h1.353a.469.469,0,0,1,0,.938Z" transform="translate(-44.533 -238.063)" fill="#e69642"/>
          </g>
          <g id="Group_59395" data-name="Group 59395" transform="translate(3.406)">
            <path id="Path_27646" data-name="Path 27646" d="M100.976,153.27a.467.467,0,0,1-.331-.137l-1.472-1.472a.469.469,0,0,1,.167-.77l.79-.3-.957-.957a.469.469,0,0,1,.663-.663l1.472,1.472a.469.469,0,0,1-.167.77l-.79.3.957.957a.469.469,0,0,1-.331.8Z" transform="translate(-99.035 -148.837)" fill="#e69642"/>
          </g>
          <g id="Group_59396" data-name="Group 59396" transform="translate(3.406 8.963)">
            <path id="Path_27647" data-name="Path 27647" d="M99.5,296.671a.469.469,0,0,1-.331-.8l.957-.957-.79-.3a.469.469,0,0,1-.167-.77l1.472-1.472a.469.469,0,0,1,.663.663l-.957.957.79.3a.469.469,0,0,1,.167.77l-1.472,1.472A.467.467,0,0,1,99.5,296.671Z" transform="translate(-99.034 -292.238)" fill="#e69642"/>
          </g>
        </g>
      </g>
    </g>
  </g>
</svg>
