<svg id="messages_outline" data-name="messages/outline" xmlns="http://www.w3.org/2000/svg" width="24" height="24" viewBox="0 0 24 24">
  <g id="vuesax_outline_messages" data-name="vuesax/outline/messages">
    <g id="messages">
      <path id="Vector" d="M6.01,17.63a1.942,1.942,0,0,1-.24-.02,1.752,1.752,0,0,1-1.36-1L3.15,13.84A7.537,7.537,0,0,1,0,7.75,8.022,8.022,0,0,1,8.25,0a8.272,8.272,0,0,1,7.47,4.49,7.185,7.185,0,0,1,.78,3.26,7.99,7.99,0,0,1-7.89,7.74L7.35,17.01A1.788,1.788,0,0,1,6.01,17.63ZM8.25,1.49A6.521,6.521,0,0,0,1.5,7.74a6.091,6.091,0,0,0,2.68,4.99.722.722,0,0,1,.25.3l1.34,2.95a.23.23,0,0,0,.2.14.244.244,0,0,0,.22-.08l1.48-1.78a.746.746,0,0,1,.58-.27A6.521,6.521,0,0,0,15,7.74a5.681,5.681,0,0,0-.62-2.59A6.766,6.766,0,0,0,8.25,1.49Z" transform="translate(1.25 1.26)" fill="#fff"/>
      <path id="Vector-2" data-name="Vector" d="M8.928,17.417a1.749,1.749,0,0,1-1.34-.63l-1.26-1.51a8.4,8.4,0,0,1-6.16-3.01.74.74,0,0,1,.01-.95l.93-1.12a.746.746,0,0,1,.58-.27,6.521,6.521,0,0,0,6.75-6.25,5.681,5.681,0,0,0-.62-2.59.75.75,0,0,1,.08-.8.764.764,0,0,1,.76-.27,7.829,7.829,0,0,1,6.28,7.52,7.537,7.537,0,0,1-3.15,6.09l-1.26,2.77a1.732,1.732,0,0,1-1.38,1.01A1.62,1.62,0,0,1,8.928,17.417Zm-7.18-5.65a6.953,6.953,0,0,0,4.94,2.01.777.777,0,0,1,.58.27l1.48,1.78a.225.225,0,0,0,.22.09.26.26,0,0,0,.21-.15l1.34-2.95a.735.735,0,0,1,.25-.3,6.091,6.091,0,0,0,2.68-4.99,6.217,6.217,0,0,0-3.71-5.58,7.045,7.045,0,0,1,.21,1.72,7.99,7.99,0,0,1-7.89,7.74Z" transform="translate(7.813 5.333)" fill="#fff"/>
      <path id="Vector-3" data-name="Vector" d="M5.75,1.5h-5A.755.755,0,0,1,0,.75.755.755,0,0,1,.75,0h5A.755.755,0,0,1,6.5.75.755.755,0,0,1,5.75,1.5Z" transform="translate(6.25 8.25)" fill="#fff"/>
      <path id="Vector-4" data-name="Vector" d="M0,0H24V24H0Z" fill="none" opacity="0"/>
    </g>
  </g>
</svg>
