<svg xmlns="http://www.w3.org/2000/svg" width="12.795" height="12.209" viewBox="0 0 12.795 12.209">
  <g id="Group_59597" data-name="Group 59597" transform="translate(0 0)">
    <g id="Group_59596" data-name="Group 59596">
      <path id="Path_28026" data-name="Path 28026" d="M104.333,215.315a.88.88,0,0,1,.71-.6l3.359-.488,1.5-3.033a.916.916,0,0,1,1.577,0l1.5,3.033,3.351.488a.879.879,0,0,1,.487,1.5l-2.43,2.369.573,3.342a.879.879,0,0,1-1.277.927l-2.993-1.578-3,1.578a.876.876,0,0,1-.409.1.894.894,0,0,1-.518-.167.882.882,0,0,1-.35-.861l.572-3.342-2.43-2.369A.878.878,0,0,1,104.333,215.315Z" transform="translate(-104.289 -210.746)" fill=""/>
    </g>
  </g>
</svg>
