<svg id="svgexport-6_52_" data-name="svgexport-6 (52)" xmlns="http://www.w3.org/2000/svg" width="32" height="32" viewBox="0 0 32 32">
  <g id="Group_59457" data-name="Group 59457" transform="translate(0 0)">
    <path id="Path_27829" data-name="Path 27829" d="M44.841,16a15.935,15.935,0,0,1-3.7,10.234c-2.935,3.523-7.355,5.005-12.3,5.005C20,31.24,13.7,24.837,13.7,16c0-5.591,3.427-12.665,9.455-14.959A16.01,16.01,0,0,1,44.841,16Z" transform="translate(-12.841 0)" fill="#e94444"/>
    <path id="Path_27830" data-name="Path 27830" d="M104.545,108.233a7.01,7.01,0,0,1-2.927-1.126c-1.116-.9-.954-1.985-.6-3.683.334-1.587.711-3.386-.815-4.912l-.73.73c1.131,1.131.841,2.51.534,3.969-.331,1.574-.706,3.358.96,4.7a7.863,7.863,0,0,0,3.342,1.328c1.76.406,3.58.826,5.073,2.889l.836-.605C108.5,109.146,106.4,108.661,104.545,108.233Z" transform="translate(-93.259 -92.355)" fill="#ff7e92"/>
    <path id="Path_27831" data-name="Path 27831" d="M130.78,171.562a4.255,4.255,0,0,0-4.165,4.491,8.939,8.939,0,0,0,1.4,3.583H126.28a1.032,1.032,0,1,0,0,2.064H127.4c-.774.626-1.3,1.473-1.854,1.726a2.032,2.032,0,0,1-1.923-.8l-.493-.987c-.457-.913-1.159-1.053-2.126-.73l-3.738,1.246-.734.914a1.034,1.034,0,0,0,1.3.648l3.8-1.266.909,1.819a4.346,4.346,0,0,0,5.54,1.937c4.574-2.264,7.491-6.05,7.491-10.179a4.647,4.647,0,0,0-3.763-4.562S131.131,171.552,130.78,171.562Z" transform="translate(-109.245 -160.746)" fill="#ffb3b7"/>
    <path id="Path_27832" data-name="Path 27832" d="M128.548,315.527h-1.962a9.735,9.735,0,0,1-2.083,1.291,1.03,1.03,0,0,1-1.345-.481l-.493-.987a2.075,2.075,0,0,0-2.5-1.035l-3.738,1.246a1.064,1.064,0,0,0-.709,1.33l4.774-1.6a1.036,1.036,0,0,1,1.249.518l.493.986a2.055,2.055,0,0,0,2.694.961,10.591,10.591,0,0,0,1.418-.782,2.566,2.566,0,0,1,1.4-.418h.816a.516.516,0,0,0,.515-.551A.528.528,0,0,0,128.548,315.527Z" transform="translate(-108.434 -294.571)" fill="#ff9ba6"/>
    <path id="Path_27833" data-name="Path 27833" d="M275.471,170.424a4.632,4.632,0,0,0-1.221,7.932.676.676,0,0,0,.29-1.129,3.689,3.689,0,0,1-.555-4.272,3.572,3.572,0,0,1,3.095-1.825,1.032,1.032,0,0,0,.964-.949A4.542,4.542,0,0,0,275.471,170.424Z" transform="translate(-255.484 -159.465)" fill="#ff9ba6"/>
    <path id="Path_27834" data-name="Path 27834" d="M18.065,168.256A16.011,16.011,0,0,1,2.771,147.542l-1.73,1.091A16,16,0,0,0,28.3,164.555,15.936,15.936,0,0,1,18.065,168.256Z" transform="translate(0 -138.321)" fill="#d83131"/>
    <path id="Path_27835" data-name="Path 27835" d="M307.848,254.256a1.745,1.745,0,0,1-1.46-.743.516.516,0,1,1,.855-.578.817.817,0,0,0,1.21,0,.516.516,0,1,1,.855.578A1.746,1.746,0,0,1,307.848,254.256Z" transform="translate(-287.155 -236.913)" fill="#ff7e92"/>
    <path id="Path_27836" data-name="Path 27836" d="M188.672,99.161a1.467,1.467,0,0,0-1.546.444,1.468,1.468,0,0,0-1.016-.506l-.484.2a1.154,1.154,0,0,0-.889,1.269c.008,1.271,1.257,2.259,2.016,2.769l1.2-.119a3.693,3.693,0,0,0,1.749-2.63A1.443,1.443,0,0,0,188.672,99.161Z" transform="translate(-173.19 -92.903)" fill="#fff"/>
    <path id="Path_27837" data-name="Path 27837" d="M43.335,19.328c-1.379,1.152-2.322,3.071-3.249,4.62l.157,1.256a16.064,16.064,0,0,0,7.649-8.547A15.976,15.976,0,0,0,43.335,19.328Z" transform="translate(-37.581 -15.615)" fill="#ffb3b7"/>
    <path id="Path_27838" data-name="Path 27838" d="M16.657,66a15.912,15.912,0,0,0,1.621-.724A16.07,16.07,0,0,1,21.37,59.4,16.111,16.111,0,0,0,16.657,66Z" transform="translate(-15.616 -55.689)" fill="#ff9ba6"/>
    <path id="Path_27839" data-name="Path 27839" d="M182.771,100.205a1.48,1.48,0,0,1,.471-1.106,1.534,1.534,0,0,0-.53.062,1.444,1.444,0,0,0-1.034,1.423c.008,1.271,1.242,2.3,2,2.806a1.035,1.035,0,0,0,1.161,0c.078-.052.165-.113.251-.176C184.437,102.82,182.781,101.679,182.771,100.205Z" transform="translate(-170.324 -92.903)" fill="#ffdfdb"/>
  </g>
</svg>
