<svg id="svgexport-7_1_" data-name="svgexport-7 (1)" xmlns="http://www.w3.org/2000/svg" width="20" height="20" viewBox="0 0 20 20">
  <g id="Group_60490" data-name="Group 60490" transform="translate(0)">
    <g id="Group_60489" data-name="Group 60489" transform="translate(0 4.746)">
      <path id="Path_28360" data-name="Path 28360" d="M.6,250.337l-.6.253a.584.584,0,0,0,.172.415l9.416,9.383a.587.587,0,0,0,.826,0L19.828,251a.585.585,0,0,0,.172-.414l-.519-.248H13.232l-3.505,1.131-2.964-1.131H.6Z" transform="translate(0 -245.304)" fill="#ffb739"/>
      <path id="Path_28361" data-name="Path 28361" d="M266,250.585a.583.583,0,0,1-.172.414l-9.414,9.389a.664.664,0,0,1-.414.17V251.38l3.232-1.043h6.249Z" transform="translate(-246 -245.304)" fill="#ff9441"/>
      <path id="Path_28362" data-name="Path 28362" d="M173.119,250.337l3.238,10.221,3.232-10.221Z" transform="translate(-166.357 -245.304)" fill="#ff9441"/>
      <path id="Path_28363" data-name="Path 28363" d="M259.232,250.337,256,260.558V250.337Z" transform="translate(-246 -245.304)" fill="#ff7149"/>
      <path id="Path_28364" data-name="Path 28364" d="M19.9,126.45l-3.134-4.7a.585.585,0,0,0-.164-.163l-.284.136-5.778.036-.542-.27-.438.276-5.765.036-.4-.214a.584.584,0,0,0-.163.162L.1,126.456a.583.583,0,0,0-.1.324l20-.005A.584.584,0,0,0,19.9,126.45Z" transform="translate(0 -121.494)" fill="#ffd17e"/>
      <path id="Path_28365" data-name="Path 28365" d="M266,126.775l-10,0v-5.284l.542.27,5.778-.036.284-.137a.591.591,0,0,1,.163.163l3.134,4.7A.581.581,0,0,1,266,126.775Z" transform="translate(-246 -121.494)" fill="#ffb739"/>
      <path id="Path_28366" data-name="Path 28366" d="M87.223,121.494a.585.585,0,0,0-.324.1l3.471,5.186h0l3.134-5.284Z" transform="translate(-83.505 -121.494)" fill="#ffb739"/>
      <path id="Path_28367" data-name="Path 28367" d="M259.13,126.778l3.469-5.185a.585.585,0,0,0-.323-.1h-6.281l3.133,5.283h0Z" transform="translate(-245.995 -121.495)" fill="#ff9441"/>
    </g>
    <path id="Path_28368" data-name="Path 28368" d="M35.784,303.206a1.778,1.778,0,0,1-1.776-1.776.586.586,0,0,0-1.172,0,1.778,1.778,0,0,1-1.776,1.776.586.586,0,0,0,0,1.172,1.778,1.778,0,0,1,1.776,1.776.586.586,0,0,0,1.172,0,1.778,1.778,0,0,1,1.776-1.776.586.586,0,0,0,0-1.172Z" transform="translate(-29.283 -289.092)" fill="#ffd17e"/>
    <path id="Path_28369" data-name="Path 28369" d="M265.69,2.362A1.778,1.778,0,0,1,263.913.586a.586.586,0,0,0-1.172,0,1.778,1.778,0,0,1-1.776,1.776.586.586,0,1,0,0,1.172,1.778,1.778,0,0,1,1.776,1.776.586.586,0,0,0,1.172,0,1.778,1.778,0,0,1,1.776-1.776.586.586,0,1,0,0-1.172Z" transform="translate(-250.208)" fill="#ffb739"/>
  </g>
</svg>
