<svg id="vuesax_outline_moneys" data-name="vuesax/outline/moneys" xmlns="http://www.w3.org/2000/svg" width="22" height="22" viewBox="0 0 22 22">
  <g id="moneys">
    <path id="Vector" d="M12.778,14.172H4.721a6.04,6.04,0,0,1-1.329-.137,3.429,3.429,0,0,1-.733-.2C1.439,13.374,0,12.247,0,9.442V4.721C0,1.723,1.723,0,4.721,0h8.058c2.53,0,4.162,1.21,4.6,3.41A6.511,6.511,0,0,1,17.5,4.721V9.442C17.5,12.457,15.785,14.172,12.778,14.172ZM4.73,1.393c-2.255,0-3.346,1.091-3.346,3.346V9.46c0,1.641.578,2.649,1.76,3.1a3.161,3.161,0,0,0,.523.137,5.04,5.04,0,0,0,1.063.11h8.058c2.255,0,3.346-1.091,3.346-3.346V4.739A5.123,5.123,0,0,0,16.042,3.7c-.312-1.558-1.375-2.31-3.254-2.31Z" transform="translate(0.871 2.53)" fill="#4835fc"/>
    <path id="Vector-2" data-name="Vector" d="M12.673,14.052H4.615a5.776,5.776,0,0,1-2.072-.339,3.928,3.928,0,0,1-2.53-3.089A.678.678,0,0,1,.206,10a.669.669,0,0,1,.633-.174,4.931,4.931,0,0,0,1.027.1H9.923c2.255,0,3.346-1.091,3.346-3.346V1.861A5.123,5.123,0,0,0,13.177.825.7.7,0,0,1,13.36.2a.657.657,0,0,1,.623-.183c2.2.449,3.41,2.081,3.41,4.593V9.331C17.393,12.338,15.679,14.052,12.673,14.052ZM1.7,11.3A2.406,2.406,0,0,0,3.038,12.43a4.537,4.537,0,0,0,1.586.247h8.058c2.255,0,3.346-1.091,3.346-3.346V4.611A3,3,0,0,0,14.653,1.7V6.581c0,3-1.723,4.721-4.721,4.721H1.7Z" transform="translate(3.727 5.399)" fill="#4835fc"/>
    <path id="Vector-3" data-name="Vector" d="M3.108,6.215A3.108,3.108,0,1,1,6.215,3.108,3.11,3.11,0,0,1,3.108,6.215Zm0-4.84A1.733,1.733,0,1,0,4.84,3.108,1.737,1.737,0,0,0,3.108,1.375Z" transform="translate(6.517 6.517)" fill="#4835fc"/>
    <path id="Vector-4" data-name="Vector" d="M.688,5.408A.693.693,0,0,1,0,4.721V.688A.693.693,0,0,1,.688,0a.693.693,0,0,1,.688.688V4.721A.687.687,0,0,1,.688,5.408Z" transform="translate(3.694 6.921)" fill="#4835fc"/>
    <path id="Vector-5" data-name="Vector" d="M.688,5.408A.693.693,0,0,1,0,4.721V.688A.693.693,0,0,1,.688,0a.693.693,0,0,1,.688.688V4.721A.687.687,0,0,1,.688,5.408Z" transform="translate(14.172 6.921)" fill="#4835fc"/>
    <path id="Vector-6" data-name="Vector" d="M0,0H22V22H0Z" fill="none" opacity="0"/>
  </g>
</svg>
